<svg xmlns="http://www.w3.org/2000/svg" width="26.5" height="15.667" viewBox="0 0 26.5 15.667"><defs><style>.a{fill:#707070;stroke:#fff;stroke-width:0.5px;}</style></defs><g transform="translate(0.25 0.25)"><path class="a" d="M13,5a3.792,3.792,0,1,0,3.792,3.792A3.792,3.792,0,0,0,13,5m0,2.167a1.625,1.625,0,1,1-1.625,1.625A1.625,1.625,0,0,1,13,7.167M5.958,8.25a2.708,2.708,0,1,0,1.311,5.07,2.831,2.831,0,0,0,.986-.943A5.871,5.871,0,0,1,7.042,8.792v-.3A2.56,2.56,0,0,0,5.958,8.25m14.083,0a2.56,2.56,0,0,0-1.083.238v.3a5.871,5.871,0,0,1-1.213,3.586,2.986,2.986,0,0,0,.433.531,2.529,2.529,0,0,0,.553.412,2.652,2.652,0,0,0,2.622,0,2.7,2.7,0,0,0-1.311-5.07M13,14.75c-2.535,0-7.583,1.268-7.583,3.792v1.625H20.583V18.542c0-2.524-5.048-3.792-7.583-3.792m-7.9.6c-2.091.249-5.1,1.311-5.1,3.2v1.625H3.25V18.076A3.432,3.432,0,0,1,5.1,15.346m15.8,0a3.432,3.432,0,0,1,1.852,2.73v2.091H26V18.542c0-1.885-3.012-2.947-5.1-3.2M13,16.917A11.239,11.239,0,0,1,17.582,18H8.417A11.239,11.239,0,0,1,13,16.917Z" transform="translate(0 -5)"/></g></svg>