<svg xmlns="http://www.w3.org/2000/svg" width="17.899" height="20.7" viewBox="0 0 17.899 20.7"><defs><style>.a{fill:#356083;}.b,.c{stroke:none;}.c{fill:#356083;}</style></defs><g transform="translate(-18.753 -16.652)"><g transform="translate(29.903 30.335)"><g class="a" transform="translate(-35.302 -37)"><path class="b" d="M 38.94573211669922 43.84211730957031 L 38.05701446533203 43.84211730957031 C 37.64461517333984 43.84211730957031 37.29557418823242 43.54689788818359 37.2270622253418 43.14013671875 L 37.17779541015625 42.84809875488281 C 37.11248779296875 42.81376266479492 37.04772186279297 42.77630996704102 36.98405456542969 42.73605728149414 L 36.70844268798828 42.83954620361328 C 36.6129035949707 42.8749885559082 36.51381301879883 42.89283752441406 36.41327285766602 42.89283752441406 C 36.11305236816406 42.89286804199219 35.83333206176758 42.73127746582031 35.68327331542969 42.47113800048828 L 35.23981475830078 41.70023727416992 C 35.03358459472656 41.34186553955078 35.11575317382813 40.89158630371094 35.43521499633789 40.62959671020508 L 35.6614875793457 40.44428253173828 C 35.65993499755859 40.40546798706055 35.65919494628906 40.369384765625 35.65919494628906 40.334228515625 C 35.65919494628906 40.29603576660156 35.65986251831055 40.25927352905273 35.66122436523438 40.22335052490234 L 35.43669509887695 40.03963851928711 C 35.1164436340332 39.77684783935547 35.03373336791992 39.3263053894043 35.23982238769531 38.96818542480469 L 35.68317413330078 38.1974983215332 C 35.83342361450195 37.93702697753906 36.11303329467773 37.77532577514648 36.41298294067383 37.77532577514648 C 36.51375198364258 37.77532577514648 36.61304473876953 37.79330825805664 36.70809173583984 37.82877731323242 L 36.98405456542969 37.93239593505859 C 37.0477180480957 37.89215087890625 37.11248016357422 37.85470199584961 37.17779541015625 37.82035827636719 L 37.22707366943359 37.52826690673828 C 37.29540252685547 37.1208381652832 37.64445495605469 36.82499694824219 38.05701446533203 36.82499694824219 L 38.94573211669922 36.82499694824219 C 39.35899353027344 36.82499694824219 39.70807266235352 37.12094879150391 39.77575302124023 37.52870559692383 L 39.8239860534668 37.8196907043457 C 39.88965606689453 37.85447692871094 39.95401000976563 37.89171600341797 40.01648330688477 37.93107986450195 L 40.29154205322266 37.82760620117188 C 40.38625335693359 37.791748046875 40.48578262329102 37.77350616455078 40.58701324462891 37.77350616455078 C 40.88642501831055 37.77350616455078 41.1657829284668 37.93509674072266 41.31607437133789 38.19520568847656 L 41.76143264770508 38.96591567993164 C 41.96958160400391 39.32466888427734 41.88710403442383 39.77584838867188 41.56518173217773 40.03845596313477 L 41.34057235717773 40.22223663330078 C 41.34212112426758 40.26128387451172 41.3428840637207 40.29792404174805 41.3428840637207 40.3328857421875 C 41.3428840637207 40.37080383300781 41.34221267700195 40.40736770629883 41.34085464477539 40.44316101074219 L 41.5667839050293 40.6281852722168 C 41.8874626159668 40.89202880859375 41.96909332275391 41.34279632568359 41.76119232177734 41.70027542114258 L 41.31607437133789 42.47058868408203 C 41.16573333740234 42.73015594482422 40.88593292236328 42.89132690429688 40.58579254150391 42.89132690429688 C 40.48537445068359 42.89132690429688 40.38657379150391 42.87351608276367 40.29215240478516 42.83839797973633 L 40.01648330688477 42.73469543457031 C 39.95401763916016 42.77405548095703 39.88967895507813 42.81128692626953 39.8239860534668 42.84608459472656 L 39.77575302124023 43.13702774047852 C 39.70823287963867 43.54554748535156 39.3591423034668 43.84211730957031 38.94573211669922 43.84211730957031 Z M 37.37736129760742 40.98110580444336 C 37.49882125854492 41.0192985534668 37.61123657226563 41.08495712280273 37.70588302612305 41.17446899414063 C 37.83527374267578 41.29807662963867 37.99763488769531 41.391845703125 38.17606353759766 41.44624710083008 C 38.29829406738281 41.48358154296875 38.40906524658203 41.54743957519531 38.50120162963867 41.63222885131836 C 38.59360122680664 41.54727172851563 38.70454406738281 41.48339462280273 38.82680511474609 41.44620895385742 C 39.0042724609375 41.39210891723633 39.16672515869141 41.29824829101563 39.29649353027344 41.1748161315918 C 39.39126205444336 41.08468246459961 39.50391387939453 41.01874160766602 39.62569808959961 40.9806022644043 C 39.59868240356445 40.85798645019531 39.59933471679688 40.72999954223633 39.62886428833008 40.60576629638672 C 39.64907455444336 40.51801681518555 39.65946197509766 40.426025390625 39.65946197509766 40.33355712890625 C 39.65946197509766 40.24238586425781 39.64865493774414 40.14960861206055 39.62733459472656 40.05779647827148 C 39.59829330444336 39.93450164794922 39.59771728515625 39.80755996704102 39.62443542480469 39.68605041503906 C 39.50276565551758 39.64786148071289 39.39021682739258 39.58219146728516 39.29552459716797 39.49264526367188 C 39.16614151000977 39.36903762817383 39.0037841796875 39.2752685546875 38.82536315917969 39.22086715698242 C 38.70316314697266 39.1842041015625 38.59206390380859 39.12037658691406 38.49952697753906 39.03508758544922 C 38.40786361694336 39.11917495727539 38.29747009277344 39.18286514282227 38.17544174194336 39.22064590454102 C 37.99714279174805 39.27500534057617 37.83469390869141 39.36886596679688 37.70492172241211 39.4922981262207 C 37.61098861694336 39.58212661743164 37.49855804443359 39.64802169799805 37.37652969360352 39.68624877929688 C 37.40305709838867 39.80755615234375 37.40265274047852 39.93434906005859 37.37411499023438 40.05766677856445 C 37.35274505615234 40.14909744262695 37.34195327758789 40.24178695678711 37.34195327758789 40.33355712890625 C 37.34195327758789 40.42657852172852 37.35248184204102 40.51821899414063 37.37324142456055 40.60593795776367 C 37.40328216552734 40.73012161254883 37.40427017211914 40.85830307006836 37.37736129760742 40.98110580444336 Z"/><path class="c" d="M 38.94573211669922 43.66711807250977 C 39.27176284790039 43.66711807250977 39.54977416992188 43.43109893798828 39.60311508178711 43.10840606689453 L 39.6657829284668 42.73037719726563 C 39.77979278564453 42.67437744140625 39.89047241210938 42.61037826538086 39.99514389038086 42.53969573974609 L 40.35316467285156 42.67437744140625 C 40.42942810058594 42.7027473449707 40.50810241699219 42.71633148193359 40.58578491210938 42.71632766723633 C 40.81845092773438 42.71632385253906 41.04209899902344 42.59445571899414 41.16455459594727 42.38302612304688 L 41.60991287231445 41.61229705810547 C 41.77392196655273 41.33028793334961 41.70792388916016 40.97092819213867 41.45590209960938 40.76357650756836 L 41.16121292114258 40.52223587036133 C 41.1658821105957 40.45889663696289 41.16788482666016 40.3962287902832 41.16788482666016 40.3328857421875 C 41.16788482666016 40.26954650878906 41.16522216796875 40.20620727539063 41.16121292114258 40.14287567138672 L 41.45456314086914 39.90285873413086 C 41.70792388916016 39.6961784362793 41.77392196655273 39.33615875244141 41.60991287231445 39.0534782409668 L 41.16455459594727 38.28275680541992 C 41.04230880737305 38.07118988037109 40.81925201416016 37.94850921630859 40.58701705932617 37.94850921630859 C 40.50894546508789 37.94850921630859 40.4298210144043 37.96237945556641 40.35316467285156 37.99139785766602 L 39.99514389038086 38.12607574462891 C 39.89047241210938 38.0554084777832 39.77979278564453 37.99139785766602 39.6657829284668 37.93539810180664 L 39.60311508178711 37.55736541748047 C 39.54977416992188 37.23601531982422 39.27176284790039 36.99999618530273 38.94573211669922 36.99999618530273 L 38.05701446533203 36.99999618530273 C 37.73098373413086 36.99999618530273 37.45364379882813 37.23534774780273 37.39963150024414 37.55737686157227 L 37.33563232421875 37.93673706054688 C 37.22096252441406 37.9920768737793 37.11094284057617 38.05607604980469 37.0056037902832 38.12741851806641 L 36.64692306518555 37.99273681640625 C 36.56999206542969 37.96403503417969 36.49090576171875 37.9503288269043 36.41298675537109 37.9503288269043 C 36.17960739135742 37.9503288269043 35.95682525634766 38.07332992553711 35.83486175537109 38.28475570678711 L 35.39150238037109 39.05547714233398 C 35.22882461547852 39.33815765380859 35.29482269287109 39.69684600830078 35.54751205444336 39.90419769287109 L 35.84086227416992 40.14421844482422 C 35.8361930847168 40.20754623413086 35.83419418334961 40.2708854675293 35.83419418334961 40.334228515625 C 35.83419418334961 40.39756774902344 35.83686447143555 40.46023559570313 35.84086227416992 40.52357864379883 L 35.54618453979492 40.76491546630859 C 35.29416275024414 40.97159576416016 35.22882461547852 41.33028793334961 35.39150238037109 41.61297607421875 L 35.83486175537109 42.38369750976563 C 35.95688247680664 42.59523010253906 36.17974853515625 42.71786117553711 36.41325378417969 42.71784210205078 C 36.49106597900391 42.71783447265625 36.57010269165039 42.70420837402344 36.64692306518555 42.67571640014648 L 37.0056037902832 42.54103851318359 C 37.11094284057617 42.61237716674805 37.22095489501953 42.67637634277344 37.33563232421875 42.73171615600586 L 37.39963150024414 43.11107635498047 C 37.45364379882813 43.43175888061523 37.73165512084961 43.66711807250977 38.05701446533203 43.66711807250977 L 38.94573211669922 43.66711807250977 M 38.49971389770508 38.76145553588867 C 38.58371353149414 38.90012741088867 38.71639251708984 39.00546646118164 38.87640380859375 39.0534782409668 C 39.07974243164063 39.115478515625 39.26642227172852 39.22281646728516 39.41576385498047 39.36549758911133 C 39.53844451904297 39.48150634765625 39.69712448120117 39.54550552368164 39.8604621887207 39.54950714111328 C 39.78379440307617 39.69017791748047 39.75979232788086 39.85685729980469 39.79779434204102 40.01820755004883 C 39.82179260253906 40.12154769897461 39.83446502685547 40.22754669189453 39.83446502685547 40.33355712890625 C 39.83446502685547 40.43956756591797 39.82246398925781 40.54490661621094 39.79912185668945 40.64623641967773 C 39.76045227050781 40.80891799926758 39.78512191772461 40.97626876831055 39.86179351806641 41.11760711669922 C 39.69845199584961 41.12093734741211 39.53977203369141 41.1849479675293 39.4171028137207 41.30161666870117 C 39.26709365844727 41.44429779052734 39.08108139038086 41.5516357421875 38.87773513793945 41.6136360168457 C 38.71772384643555 41.66230773925781 38.58505249023438 41.76764678955078 38.50104141235352 41.90565872192383 C 38.41703414916992 41.76698684692383 38.28436279296875 41.66230773925781 38.12502288818359 41.6136360168457 C 37.92167282104492 41.5516357421875 37.73499298095703 41.44429779052734 37.58564376831055 41.30161666870117 C 37.46297454833984 41.18560791015625 37.30430221557617 41.12160873413086 37.1416130065918 41.11760711669922 C 37.21829223632813 40.97626876831055 37.24229431152344 40.80891799926758 37.20295333862305 40.64624786376953 C 37.17896270751953 40.54490661621094 37.16695404052734 40.44023895263672 37.16695404052734 40.33355712890625 C 37.16695404052734 40.22687530517578 37.17962265014648 40.12087631225586 37.2036247253418 40.01820755004883 C 37.24096298217773 39.85685729980469 37.21695327758789 39.69017791748047 37.14095306396484 39.54950714111328 C 37.30430221557617 39.54550552368164 37.46231460571289 39.4821662902832 37.58431243896484 39.36549758911133 C 37.73432159423828 39.22281646728516 37.92033386230469 39.115478515625 38.12368392944336 39.0534782409668 C 38.28303146362305 39.0041389465332 38.41637420654297 38.89946746826172 38.49971389770508 38.76145553588867 M 38.94573211669922 44.01711654663086 L 38.05701446533203 44.01711654663086 C 37.55886459350586 44.01711654663086 37.13724517822266 43.66051864624023 37.05449295043945 43.16920852661133 L 37.01937484741211 42.96102905273438 C 37.00138854980469 42.95087432861328 36.98345184326172 42.94049835205078 36.9655876159668 42.9299201965332 L 36.76995468139648 43.00337600708008 C 36.65418243408203 43.04631805419922 36.53462219238281 43.06783676147461 36.41325378417969 43.06783676147461 C 36.05071258544922 43.06786727905273 35.7129020690918 42.87273788452148 35.53168487548828 42.55858612060547 L 35.0881233215332 41.78749847412109 C 34.83903503417969 41.35466766357422 34.93832397460938 40.81076812744141 35.32424163818359 40.49428558349609 L 35.48434829711914 40.3631591796875 C 35.48424530029297 40.35343933105469 35.48419189453125 40.34380722045898 35.48419189453125 40.334228515625 C 35.48419189453125 40.32430648803711 35.48423767089844 40.31447601318359 35.48432159423828 40.30472183227539 L 35.32587432861328 40.17507553100586 C 34.93901443481445 39.85763549804688 34.83920288085938 39.3134880065918 35.08815383911133 38.88089752197266 L 35.5314826965332 38.11023712158203 C 35.71298217773438 37.79557800292969 36.05068206787109 37.60032653808594 36.41298294067383 37.60032653808594 C 36.53469467163086 37.60032653808594 36.65456390380859 37.62202835083008 36.76926422119141 37.66481781005859 L 36.96559143066406 37.7385368347168 C 36.98345184326172 37.72795486450195 37.00138854980469 37.71758270263672 37.01937866210938 37.70742416381836 L 37.05451202392578 37.4991569519043 C 37.13701248168945 37.00725555419922 37.55864334106445 36.64999771118164 38.05701446533203 36.64999771118164 L 38.94573211669922 36.64999771118164 C 39.44495391845703 36.64999771118164 39.86663436889648 37.00749588012695 39.94839477539063 37.50005722045898 L 39.98271942138672 37.70711898803711 C 40.00017166137695 37.71699905395508 40.01752090454102 37.72703552246094 40.03475952148438 37.73722839355469 L 40.22993469238281 37.6638069152832 C 40.34416198730469 37.62056732177734 40.46453475952148 37.59850692749023 40.58701324462891 37.59850692749023 C 40.94871139526367 37.59850692749023 41.2861328125 37.79359817504883 41.46760177612305 38.10764694213867 L 41.9129524230957 38.87836837768555 C 42.16434478759766 39.3116455078125 42.06473159790039 39.85678863525391 41.67580413818359 40.17406845092773 L 41.51771926879883 40.30340957641602 C 41.51782989501953 40.31335830688477 41.51788330078125 40.32318115234375 41.51788330078125 40.3328857421875 C 41.51788330078125 40.34261703491211 41.51784133911133 40.35226440429688 41.51775741577148 40.36183929443359 L 41.67766189575195 40.4927978515625 C 42.06521224975586 40.8116455078125 42.16370391845703 41.35625839233398 41.9124641418457 41.78825759887695 L 41.46759414672852 42.55813598632813 C 41.28597259521484 42.8717155456543 40.94815444946289 43.06632614135742 40.58578491210938 43.06632614135742 C 40.46446228027344 43.06632614135742 40.34515380859375 43.04482650756836 40.23114395141602 43.00241851806641 L 40.03476715087891 42.92854690551758 C 40.01752471923828 42.93874359130859 40.00018310546875 42.94877624511719 39.98271942138672 42.95866012573242 L 39.94840240478516 43.16564559936523 C 39.86685180664063 43.65895843505859 39.44516372680664 44.01711654663086 38.94573211669922 44.01711654663086 Z M 37.56953430175781 40.86971664428711 C 37.66266250610352 40.91499328613281 37.7492790222168 40.97464752197266 37.82613372802734 41.04732894897461 C 37.93649291992188 41.15274810791016 38.07469177246094 41.23238754272461 38.22709274291992 41.27885818481445 C 38.32546615600586 41.30890274047852 38.41770553588867 41.35318756103516 38.50122451782227 41.40969848632813 C 38.58496856689453 41.35305404663086 38.67738723754883 41.30874252319336 38.77588272094727 41.27878570556641 C 38.92733383178711 41.23260879516602 39.06573486328125 41.15278625488281 39.1758918762207 41.04800796508789 C 39.25297164916992 40.97470474243164 39.33988952636719 40.91464614868164 39.43339157104492 40.86917877197266 C 39.42649078369141 40.76805877685547 39.43475341796875 40.66566467285156 39.45861434936523 40.5652961730957 C 39.4755744934082 40.49159622192383 39.48446273803711 40.41282653808594 39.48446273803711 40.33355712890625 C 39.48446273803711 40.25568771362305 39.47518157958984 40.17622756958008 39.45686340332031 40.09738540649414 C 39.43354415893555 39.99836730957031 39.42545700073242 39.8973274230957 39.43218994140625 39.7974967956543 C 39.33890151977539 39.7522087097168 39.25220489501953 39.69253540039063 39.1752815246582 39.61979675292969 C 39.06492233276367 39.51436614990234 38.92672348022461 39.43472671508789 38.77432250976563 39.38825607299805 C 38.67582702636719 39.35870742797852 38.58322143554688 39.31445693969727 38.4992561340332 39.25759124755859 C 38.41639709472656 39.31351089477539 38.32486724853516 39.35757446289063 38.22720336914063 39.3878173828125 C 38.07408142089844 39.43450546264648 37.93568420410156 39.51432800292969 37.82552337646484 39.61910629272461 C 37.74902725219727 39.6922607421875 37.66230010986328 39.75229263305664 37.56867980957031 39.79778671264648 C 37.57539749145508 39.89731597900391 37.5675163269043 39.99814605712891 37.54461288452148 40.09711837768555 C 37.52620315551758 40.17588806152344 37.51695251464844 40.25517654418945 37.51695251464844 40.33355712890625 C 37.51695251464844 40.41301727294922 37.52590179443359 40.49109649658203 37.54354476928711 40.56561660766602 C 37.56778717041016 40.66585540771484 37.57631301879883 40.76836395263672 37.56953430175781 40.86971664428711 Z"/></g></g><g transform="translate(23.101 17.002)"><g class="a" transform="translate(-25.1 -17.002)"><path class="b" d="M 29.76698303222656 26.50962257385254 C 27.09710311889648 26.50962257385254 24.92500305175781 24.33871269226074 24.92500305175781 21.67031288146973 C 24.92500305175781 18.99970245361328 27.09710311889648 16.82700157165527 29.76698303222656 16.82700157165527 C 32.43649291992188 16.82700157165527 34.60829162597656 18.99970245361328 34.60829162597656 21.67031288146973 C 34.60829162597656 24.33871269226074 32.43649291992188 26.50962257385254 29.76698303222656 26.50962257385254 Z M 29.76698303222656 18.51042175292969 C 28.02534294128418 18.51042175292969 26.60842323303223 19.92794227600098 26.60842323303223 21.67031288146973 C 26.60842323303223 23.41047286987305 28.02534294128418 24.82620239257813 29.76698303222656 24.82620239257813 C 31.50824356079102 24.82620239257813 32.92486190795898 23.41047286987305 32.92486190795898 21.67031288146973 C 32.92486190795898 19.92794227600098 31.50824356079102 18.51042175292969 29.76698303222656 18.51042175292969 Z"/><path class="c" d="M 29.76698303222656 26.33462142944336 C 32.33981323242188 26.33462142944336 34.43329238891602 24.2418212890625 34.43329238891602 21.67031288146973 C 34.43329238891602 19.09614181518555 32.33981323242188 17.00200271606445 29.76698303222656 17.00200271606445 C 27.19347381591797 17.00200271606445 25.10000419616699 19.09614181518555 25.10000419616699 21.67031288146973 C 25.10000419616699 24.24248123168945 27.19347381591797 26.33462142944336 29.76698303222656 26.33462142944336 M 29.76698303222656 18.33542251586914 C 31.60443305969238 18.33542251586914 33.0998649597168 19.83152198791504 33.0998649597168 21.67031288146973 C 33.0998649597168 23.50710296630859 31.60443305969238 25.00120162963867 29.76698303222656 25.00120162963867 C 27.92885398864746 25.00120162963867 26.43342399597168 23.50643157958984 26.43342399597168 21.67031288146973 C 26.43342399597168 19.83152198791504 27.92885398864746 18.33542251586914 29.76698303222656 18.33542251586914 M 29.76698303222656 26.68462181091309 C 27.00061416625977 26.68462181091309 24.75000381469727 24.43521118164063 24.75000381469727 21.67031288146973 C 24.75000381469727 18.90320205688477 27.00061416625977 16.65200233459473 29.76698303222656 16.65200233459473 C 32.53298187255859 16.65200233459473 34.78329467773438 18.90320205688477 34.78329467773438 21.67031288146973 C 34.78329467773438 24.43521118164063 32.53298187255859 26.68462181091309 29.76698303222656 26.68462181091309 Z M 29.76698303222656 18.68542289733887 C 28.1218433380127 18.68542289733887 26.78342437744141 20.02444267272949 26.78342437744141 21.67031288146973 C 26.78342437744141 23.3139820098877 28.1218433380127 24.65120124816895 29.76698303222656 24.65120124816895 C 31.41175270080566 24.65120124816895 32.74986267089844 23.3139820098877 32.74986267089844 21.67031288146973 C 32.74986267089844 20.02444267272949 31.41175270080566 18.68542289733887 29.76698303222656 18.68542289733887 Z"/></g></g><g transform="translate(19.103 27.668)"><g class="a" transform="translate(-19.103 -33)"><path class="b" d="M 27.76824951171875 39.84211730957031 L 19.76972007751465 39.84211730957031 C 19.30558967590332 39.84211730957031 18.92799949645996 39.46452713012695 18.92799949645996 39.00039672851563 C 18.92799949645996 35.59526824951172 21.69797897338867 32.82499694824219 25.10273933410645 32.82499694824219 L 30.43642997741699 32.82499694824219 C 30.90054893493652 32.82499694824219 31.27813911437988 33.20258712768555 31.27813911437988 33.66671752929688 C 31.27813911437988 34.13083648681641 30.90054893493652 34.50842666625977 30.43642997741699 34.50842666625977 L 25.10273933410645 34.50842666625977 C 22.95160293579102 34.50842666625977 21.08968353271484 36.06386566162109 20.69038009643555 38.15868759155273 L 27.76824951171875 38.15868759155273 C 28.23236846923828 38.15868759155273 28.60995864868164 38.53627777099609 28.60995864868164 39.00039672851563 C 28.60995864868164 39.46452713012695 28.23236846923828 39.84211730957031 27.76824951171875 39.84211730957031 Z"/><path class="c" d="M 27.76824951171875 39.66711807250977 C 28.13626861572266 39.66711807250977 28.43495941162109 39.36909866333008 28.43495941162109 39.00039672851563 C 28.43495941162109 38.63170623779297 28.13626861572266 38.33368682861328 27.76824951171875 38.33368682861328 L 20.4837589263916 38.33368682861328 C 20.80844879150391 36.07486724853516 22.75590896606445 34.33342742919922 25.10273933410645 34.33342742919922 L 30.43642997741699 34.33342742919922 C 30.8044490814209 34.33342742919922 31.10313987731934 34.03540802001953 31.10313987731934 33.66671752929688 C 31.10313987731934 33.29801559448242 30.8044490814209 32.99999618530273 30.43642997741699 32.99999618530273 L 25.10273933410645 32.99999618530273 C 21.79451942443848 32.99999618530273 19.10299873352051 35.6915168762207 19.10299873352051 39.00039672851563 C 19.10299873352051 39.36909866333008 19.40168952941895 39.66711807250977 19.76972007751465 39.66711807250977 L 27.76824951171875 39.66711807250977 M 27.76824951171875 40.01711654663086 L 19.76972007751465 40.01711654663086 C 19.20909881591797 40.01711654663086 18.75299835205078 39.56101608276367 18.75299835205078 39.00039672851563 C 18.75299835205078 35.49877548217773 21.60147857666016 32.64999771118164 25.10273933410645 32.64999771118164 L 30.43642997741699 32.64999771118164 C 30.99704933166504 32.64999771118164 31.45314025878906 33.10609817504883 31.45314025878906 33.66671752929688 C 31.45314025878906 34.22733688354492 30.99704933166504 34.68342590332031 30.43642997741699 34.68342590332031 L 25.10273933410645 34.68342590332031 C 23.10712814331055 34.68342590332031 21.37054824829102 36.07621765136719 20.90728950500488 37.98368835449219 L 27.76824951171875 37.98368835449219 C 28.3288688659668 37.98368835449219 28.78495979309082 38.43977737426758 28.78495979309082 39.00039672851563 C 28.78495979309082 39.56101608276367 28.3288688659668 40.01711654663086 27.76824951171875 40.01711654663086 Z"/></g></g><g transform="translate(29.77 27.668)"><g class="a" transform="translate(-35.102 -33)"><path class="b" d="M 36.93545913696289 34.63843536376953 C 36.87486267089844 34.63843536376953 36.81307220458984 34.6317253112793 36.7518196105957 34.61848449707031 C 36.42501068115234 34.54536437988281 36.09466171264648 34.50842666625977 35.76871109008789 34.50842666625977 C 35.30459213256836 34.50842666625977 34.927001953125 34.13083648681641 34.927001953125 33.66671752929688 C 34.927001953125 33.20258712768555 35.30459213256836 32.82499694824219 35.76871109008789 32.82499694824219 C 36.22027969360352 32.82499694824219 36.6746826171875 32.87578582763672 37.1192626953125 32.97595596313477 C 37.33855056762695 33.02517700195313 37.52556991577148 33.15696716308594 37.64572906494141 33.34699630737305 C 37.76581954956055 33.53689575195313 37.80483245849609 33.7623176574707 37.75558090209961 33.98172760009766 C 37.67048263549805 34.36219787597656 37.3255615234375 34.63843536376953 36.93545913696289 34.63843536376953 Z"/><path class="c" d="M 36.93545913696289 34.46343612670898 C 37.24014282226563 34.46343612670898 37.5154914855957 34.25341796875 37.58483123779297 33.94339752197266 C 37.66550064086914 33.58403778076172 37.44016265869141 33.22734451293945 37.0807991027832 33.14667510986328 C 36.64876937866211 33.04933547973633 36.20740127563477 32.99999618530273 35.76871109008789 32.99999618530273 C 35.40069198608398 32.99999618530273 35.10200119018555 33.29801559448242 35.10200119018555 33.66671752929688 C 35.10200119018555 34.03540802001953 35.40069198608398 34.33342742919922 35.76871109008789 34.33342742919922 C 36.10873031616211 34.33342742919922 36.45209121704102 34.37209701538086 36.78878021240234 34.44743728637695 C 36.83811187744141 34.45809555053711 36.88677978515625 34.46343612670898 36.93545913696289 34.46343612670898 M 36.93545913696289 34.81343460083008 C 36.86244964599609 34.81343460083008 36.78823089599609 34.80539703369141 36.71485137939453 34.78953552246094 C 36.39932250976563 34.71894454956055 36.08182907104492 34.68342590332031 35.76871109008789 34.68342590332031 C 35.20809173583984 34.68342590332031 34.75200271606445 34.22733688354492 34.75200271606445 33.66671752929688 C 34.75200271606445 33.10609436035156 35.20809173583984 32.64999771118164 35.76871109008789 32.64999771118164 C 36.23320007324219 32.64999771118164 36.70054244995117 32.70222473144531 37.15773010253906 32.80523681640625 C 37.42253112792969 32.86467742919922 37.64847183227539 33.02388763427734 37.79364013671875 33.25346755981445 C 37.93869018554688 33.48283767700195 37.98580932617188 33.75508499145508 37.92633056640625 34.02005767822266 C 37.82353973388672 34.47965621948242 37.40679168701172 34.81343460083008 36.93545913696289 34.81343460083008 Z"/></g></g></g></svg>