<svg xmlns="http://www.w3.org/2000/svg" width="22" height="19.556" viewBox="0 0 22 19.556"><defs><style>.a{fill:none;}.b,.c{stroke:none;}.c{fill:#707070;}</style></defs><g class="a"><path class="b" d="M7.944,0a2.437,2.437,0,0,0-2.36,1.841c-.031,0-.053-.008-.084-.008A2.447,2.447,0,0,0,3.056,4.278a2.252,2.252,0,0,0,.065.535A3.029,3.029,0,0,0,1.539,8.972a3.044,3.044,0,0,0,.348,5.462,2.8,2.8,0,0,0-.053.539,2.748,2.748,0,0,0,2.75,2.75,2.589,2.589,0,0,0,.458-.046,2.743,2.743,0,0,0,5.347-.871V2.444A2.447,2.447,0,0,0,7.944,0ZM22,11.611a3.04,3.04,0,0,0-1.539-2.639,3.006,3.006,0,0,0,.317-1.333,3.055,3.055,0,0,0-1.9-2.826A2.422,2.422,0,0,0,16.5,1.833c-.031,0-.057.008-.084.008a2.44,2.44,0,0,0-4.8.6V16.806a2.743,2.743,0,0,0,5.347.871,2.589,2.589,0,0,0,.458.046,2.748,2.748,0,0,0,2.75-2.75,2.8,2.8,0,0,0-.053-.539A3.056,3.056,0,0,0,22,11.611Z"/><path class="c" d="M 7.944439888000488 0.9999980926513672 C 7.289400100708008 0.9999980926513672 6.717100143432617 1.447917938232422 6.552720069885254 2.089258193969727 L 6.360039710998535 2.840969085693359 L 5.584030151367188 2.840969085693359 C 5.533697128295898 2.840969085693359 5.489593505859375 2.837667465209961 5.45530891418457 2.834020614624023 C 4.679464340209961 2.857751846313477 4.055559158325195 3.496280670166016 4.055559158325195 4.277778625488281 C 4.055559158325195 4.376439094543457 4.067779541015625 4.476458549499512 4.091880798339844 4.575058937072754 L 4.296089172363281 5.410518646240234 L 3.500600814819336 5.737438201904297 C 2.724010467529297 6.056588172912598 2.222219467163086 6.802948951721191 2.222219467163086 7.638888359069824 C 2.222219467163086 7.934868812561035 2.295610427856445 8.237468719482422 2.440359115600586 8.538298606872559 L 2.843229293823242 9.375618934631348 L 2.037710189819336 9.838788986206055 C 1.387929916381836 10.21240901947021 1 10.87495899200439 1 11.61110877990723 C 1 12.44540882110596 1.498170852661133 13.19063854217529 2.269159317016602 13.50965881347656 L 3.025350570678711 13.82256889343262 L 2.868200302124023 14.62570858001709 C 2.845060348510742 14.74395847320557 2.833330154418945 14.86053848266602 2.833330154418945 14.97221851348877 C 2.833330154418945 15.93716812133789 3.618379592895508 16.72221755981445 4.583330154418945 16.72221755981445 C 4.661100387573242 16.72221755981445 4.750600814819336 16.7126579284668 4.864980697631836 16.69211959838867 L 5.714000701904297 16.53970909118652 L 5.989349365234375 17.357177734375 C 6.230790138244629 18.0739688873291 6.89369010925293 18.5555591583252 7.638890266418457 18.5555591583252 C 8.603839874267578 18.5555591583252 9.388890266418457 17.7705078125 9.388890266418457 16.8055591583252 L 9.388890266418457 2.444448471069336 C 9.388890266418457 1.647977828979492 8.740909576416016 0.9999980926513672 7.944439888000488 0.9999980926513672 M 14.05556011199951 0.9999980926513672 C 13.25909042358398 0.9999980926513672 12.61110973358154 1.647977828979492 12.61110973358154 2.444448471069336 L 12.61110973358154 16.8055591583252 C 12.61110973358154 17.7705078125 13.39616012573242 18.5555591583252 14.36111068725586 18.5555591583252 C 15.10630035400391 18.5555591583252 15.76919937133789 18.07395935058594 16.01065063476563 17.35716819763184 L 16.2860107421875 16.53971862792969 L 17.13501930236816 16.69211959838867 C 17.2494010925293 16.7126579284668 17.33889961242676 16.72221755981445 17.41666984558105 16.72221755981445 C 18.38162040710449 16.72221755981445 19.16666984558105 15.93716812133789 19.16666984558105 14.97221851348877 C 19.16666984558105 14.86053848266602 19.15493965148926 14.74395847320557 19.13179969787598 14.62570858001709 L 18.97464942932129 13.82256889343262 L 19.7308406829834 13.50965881347656 C 20.50182914733887 13.19063854217529 21 12.44540882110596 21 11.61110877990723 C 21 10.87495899200439 20.61207008361816 10.21240901947021 19.96228981018066 9.838788986206055 L 19.15060043334961 9.372068405151367 L 19.56296920776367 8.531458854675293 C 19.70550918579102 8.240899085998535 19.77778053283691 7.940598487854004 19.77778053283691 7.638888359069824 C 19.77778053283691 6.802948951721191 19.27597999572754 6.056588172912598 18.4993896484375 5.737438201904297 L 17.72066116333008 5.41740894317627 L 17.90332984924316 4.595528602600098 C 17.93099021911621 4.471078872680664 17.94443893432617 4.367138862609863 17.94443893432617 4.277778625488281 C 17.94443893432617 3.495941162109375 17.32003211975098 2.857196807861328 16.54371643066406 2.833992004394531 C 16.51048469543457 2.837574005126953 16.4666862487793 2.840969085693359 16.41596984863281 2.840969085693359 L 15.63995933532715 2.840969085693359 L 15.44727993011475 2.089258193969727 C 15.28289985656738 1.447917938232422 14.71059989929199 0.9999980926513672 14.05556011199951 0.9999980926513672 M 7.944439888000488 -1.9073486328125e-06 C 9.292710304260254 -1.9073486328125e-06 10.38889026641846 1.09617805480957 10.38889026641846 2.444448471069336 L 10.38889026641846 16.8055591583252 C 10.38889026641846 18.32569885253906 9.159029960632324 19.5555591583252 7.638890266418457 19.5555591583252 C 6.424309730529785 19.5555591583252 5.408330917358398 18.76492881774902 5.041669845581055 17.67638778686523 C 4.892709732055664 17.70312881469727 4.73992919921875 17.72221946716309 4.583330154418945 17.72221946716309 C 3.063190460205078 17.72221946716309 1.833330154418945 16.49235916137695 1.833330154418945 14.97221851348877 C 1.833330154418945 14.78888893127441 1.85243034362793 14.60937881469727 1.886810302734375 14.43367862701416 C 0.7791690826416016 13.97534847259521 0 12.88298797607422 0 11.61110877990723 C 0 10.47673892974854 0.6225700378417969 9.498958587646484 1.539239883422852 8.971879005432129 C 1.344440460205078 8.567018508911133 1.222219467163086 8.120138168334961 1.222219467163086 7.638888359069824 C 1.222219467163086 6.363198280334473 2.005210876464844 5.270838737487793 3.120479583740234 4.812499046325684 C 3.078470230102539 4.640628814697266 3.055559158325195 4.461108207702637 3.055559158325195 4.277778625488281 C 3.055559158325195 2.929508209228516 4.151739120483398 1.833337783813477 5.5 1.833337783813477 C 5.530559539794922 1.833337783813477 5.553470611572266 1.840969085693359 5.584030151367188 1.840969085693359 C 5.855209350585938 0.782989501953125 6.802430152893066 -1.9073486328125e-06 7.944439888000488 -1.9073486328125e-06 Z M 14.05556011199951 -1.9073486328125e-06 C 15.19756984710693 -1.9073486328125e-06 16.14479064941406 0.782989501953125 16.41596984863281 1.840969085693359 C 16.44271087646484 1.840969085693359 16.46944999694824 1.833337783813477 16.5 1.833337783813477 C 17.84825897216797 1.833337783813477 18.94443893432617 2.929508209228516 18.94443893432617 4.277778625488281 C 18.94443893432617 4.461108207702637 18.91770935058594 4.640628814697266 18.87950897216797 4.812499046325684 C 19.99478912353516 5.270838737487793 20.77778053283691 6.363198280334473 20.77778053283691 7.638888359069824 C 20.77778053283691 8.120138168334961 20.65937042236328 8.567018508911133 20.46076011657715 8.971879005432129 C 21.3774299621582 9.498958587646484 22 10.47673892974854 22 11.61110877990723 C 22 12.88298797607422 21.2208309173584 13.97534847259521 20.11318969726563 14.43367862701416 C 20.14756965637207 14.60937881469727 20.16666984558105 14.78888893127441 20.16666984558105 14.97221851348877 C 20.16666984558105 16.49235916137695 18.93680953979492 17.72221946716309 17.41666984558105 17.72221946716309 C 17.26007080078125 17.72221946716309 17.10729026794434 17.70312881469727 16.95833015441895 17.67638778686523 C 16.59165954589844 18.76492881774902 15.5756893157959 19.5555591583252 14.36111068725586 19.5555591583252 C 12.84097003936768 19.5555591583252 11.61110973358154 18.32569885253906 11.61110973358154 16.8055591583252 L 11.61110973358154 2.444448471069336 C 11.61110973358154 1.09235954284668 12.70728969573975 -1.9073486328125e-06 14.05556011199951 -1.9073486328125e-06 Z"/></g></svg>