<svg xmlns="http://www.w3.org/2000/svg" width="49.2" height="48" viewBox="0 0 49.2 48"><defs><style>.a{fill:#e60000;}</style></defs><g transform="translate(-9 -962.362)"><path class="a" d="M28.8,10a10.084,10.084,0,0,0-10.2,9.938A13.851,13.851,0,0,0,21.488,28a12.035,12.035,0,0,0,3.019,2.869C15.67,32.7,9,39.835,9,48.4a1.2,1.2,0,0,0,1.2,1.2H31.8a1.2,1.2,0,1,0,0-2.4H11.531c.7-7.954,8.135-14.4,17.456-14.4a19.421,19.421,0,0,1,8.25,1.8,1.2,1.2,0,1,0,1.012-2.175,21.331,21.331,0,0,0-5.062-1.612A12.1,12.1,0,0,0,36.113,28,13.851,13.851,0,0,0,39,19.938,10.084,10.084,0,0,0,28.8,10Zm0,2.4a7.65,7.65,0,0,1,7.8,7.538,11.8,11.8,0,0,1-2.4,6.619c-1.475,1.955-3.415,3.244-5.4,3.244s-3.925-1.289-5.4-3.244A11.8,11.8,0,0,1,21,19.938,7.65,7.65,0,0,1,28.8,12.4ZM46.2,34a12,12,0,1,0,12,12A12.018,12.018,0,0,0,46.2,34Zm0,2.4a9.576,9.576,0,0,1,5.887,2.006L38.606,51.888A9.611,9.611,0,0,1,46.2,36.4Zm7.575,3.712A9.6,9.6,0,0,1,40.313,53.594Z" transform="translate(0 952.362)"/></g></svg>