<svg xmlns="http://www.w3.org/2000/svg" width="50" height="50" viewBox="0 0 50 50"><defs><style>.a{fill:#9cac70;}.b{fill:#fff;}</style></defs><g transform="translate(-262 -310)"><path class="a" d="M25,0A25,25,0,1,1,0,25,25,25,0,0,1,25,0Z" transform="translate(262 310)"/><path class="b" d="M18.171,3H4.686A1.683,1.683,0,0,0,3.008,4.686L3,19.857l3.371-3.371h11.8A1.691,1.691,0,0,0,19.857,14.8V4.686A1.691,1.691,0,0,0,18.171,3ZM6.371,8.9H16.486v1.686H6.371Zm6.743,4.214H6.371V11.429h6.743Zm3.371-5.057H6.371V6.371H16.486Z" transform="translate(275.691 324.128)"/></g></svg>