<svg xmlns="http://www.w3.org/2000/svg" width="16" height="16" viewBox="0 0 16 16"><defs><style>.a{fill:#a9a9a9;}</style></defs><g transform="translate(-3.375 -3.375)"><path class="a" d="M6.637,19.25a2.007,2.007,0,0,1-1.723-1.723V11.25H4.544a1.174,1.174,0,0,0-1.169,1.169V22.942l2.25-2.231H13.9a1.188,1.188,0,0,0,1.169-1.188V19.25Z" transform="translate(0 -3.567)"/><path class="a" d="M20.167,3.375H9.428A1.346,1.346,0,0,0,8.086,4.717v8.7A1.349,1.349,0,0,0,9.428,14.76H18.59L21.509,16.8V4.717A1.346,1.346,0,0,0,20.167,3.375Z" transform="translate(-2.134)"/></g></svg>