<svg xmlns="http://www.w3.org/2000/svg" width="26.251" height="17.263" viewBox="0 0 26.251 17.263"><defs><style>.a{fill:#929292;stroke:#929292;stroke-width:0.25px;}</style></defs><path class="a" d="M26.6,10.014c-.019-.182-.139-.512-.734-.687L14.82,6.089a5.194,5.194,0,0,0-2.437,0L1.339,9.326c-.594.175-.714.507-.734.687s.031.531.577.825l4.155,2.234v7.3a.346.346,0,0,0,.121.261c.111.093,2.756,2.289,8.144,2.289s8.035-2.2,8.145-2.289a.342.342,0,0,0,.12-.261v-7.3l1.213-.651a4.186,4.186,0,0,1,.928,2.854V16.3a1.251,1.251,0,0,0-.765,1.819,1.557,1.557,0,0,0-.366,1V21.8a.341.341,0,0,0,.341.342H25.48a.342.342,0,0,0,.343-.342V19.124a1.553,1.553,0,0,0-.366-1,1.25,1.25,0,0,0-.766-1.82V15.276a5.1,5.1,0,0,0-.986-3.19l2.318-1.247C26.568,10.546,26.618,10.2,26.6,10.014ZM25.138,21.461H23.561V19.124a.855.855,0,0,1,.165-.511,1.223,1.223,0,0,0,1.246,0,.871.871,0,0,1,.165.511v2.337Zm-.2-3.944a.583.583,0,1,1-.583-.583A.585.585,0,0,1,24.934,17.516Zm-3.751,2.69A13.052,13.052,0,0,1,13.6,22.24a13.057,13.057,0,0,1-7.581-2.034V13.44l6.389,3.434a2.775,2.775,0,0,0,2.382,0l6.389-3.434v6.766Zm4.517-9.97-2.56,1.377a1.227,1.227,0,0,0-.529-.154c-.828-.033-8.885-1.027-8.966-1.038a.335.335,0,0,0-.382.3.342.342,0,0,0,.3.382c.3.037,6.857.847,8.647,1.012l-7.737,4.159a2.2,2.2,0,0,1-1.736,0L1.505,10.236a1.737,1.737,0,0,1-.213-.142.637.637,0,0,1,.239-.112L12.576,6.744a4.55,4.55,0,0,1,2.052,0L25.673,9.982a2.006,2.006,0,0,1,.236.094A.594.594,0,0,1,25.7,10.236Z" transform="translate(-0.477 -5.785)"/></svg>