<svg xmlns="http://www.w3.org/2000/svg" width="20" height="20" viewBox="0 0 20 20"><defs><style>.a{fill:#fff;stroke:#707070;}.b{fill:#5e5f60;}.c{stroke:none;}.d{fill:none;}</style></defs><g transform="translate(-228 -579)"><g class="a" transform="translate(228 579)"><circle class="c" cx="10" cy="10" r="10"/><circle class="d" cx="10" cy="10" r="9.5"/></g><path class="b" d="M6.13,6.838,2.966,5.912A.864.864,0,0,1,3.21,4.219H5.152a1.788,1.788,0,0,1,1,.308.457.457,0,0,0,.571-.059l1.02-1a.475.475,0,0,0-.053-.718,4.143,4.143,0,0,0-2.534-.879V.469A.47.47,0,0,0,4.689,0H3.751a.47.47,0,0,0-.469.469V1.875H3.21a3.21,3.21,0,0,0-3.193,3.5,3.354,3.354,0,0,0,2.455,2.83l3,.879a.864.864,0,0,1-.243,1.693H3.289a1.788,1.788,0,0,1-1-.308.457.457,0,0,0-.571.059l-1.02,1a.475.475,0,0,0,.053.718,4.143,4.143,0,0,0,2.534.879v1.406A.47.47,0,0,0,3.751,15h.938a.47.47,0,0,0,.469-.469V13.119a3.309,3.309,0,0,0,3.1-2.13A3.217,3.217,0,0,0,6.13,6.838Z" transform="translate(233.502 581.5)"/></g></svg>