<svg xmlns="http://www.w3.org/2000/svg" width="20.224" height="24" viewBox="0 0 20.224 24">
  <path id="certified" d="M473.272,21.593l2.143,4.595-2.4-.065L471.528,28l-1.921-4.12,0,.006a.762.762,0,0,1-1.054.21l-.806-.54a1.233,1.233,0,0,0-1.264,0l-.805.54a.762.762,0,0,1-1.055-.21l0-.006L462.695,28l-1.49-1.878-2.4.065,2.143-4.595-.07-.356a1.234,1.234,0,0,0-.895-.894l-.951-.188a.762.762,0,0,1-.6-.894l.19-.951a1.233,1.233,0,0,0-.483-1.169l-.808-.538a.763.763,0,0,1-.21-1.054l.541-.806a1.236,1.236,0,0,0,0-1.265l-.541-.805a.763.763,0,0,1,.21-1.054l.808-.538a1.232,1.232,0,0,0,.483-1.169l-.19-.951a.762.762,0,0,1,.6-.894l.951-.188a1.234,1.234,0,0,0,.895-.894l.188-.951a.762.762,0,0,1,.894-.6l.95.191a1.235,1.235,0,0,0,1.169-.484l.537-.807a.762.762,0,0,1,1.055-.21l.805.54a1.233,1.233,0,0,0,1.264,0l.806-.54a.762.762,0,0,1,1.054.21l.537.807a1.235,1.235,0,0,0,1.169.484l.951-.191a.762.762,0,0,1,.894.6l.188.951a1.235,1.235,0,0,0,.895.894l.951.188a.762.762,0,0,1,.6.894l-.19.951a1.234,1.234,0,0,0,.484,1.169l.807.538a.763.763,0,0,1,.21,1.054l-.541.805a1.236,1.236,0,0,0,0,1.265l.541.806a.762.762,0,0,1-.21,1.054l-.807.538a1.232,1.232,0,0,0-.484,1.169l.19.951a.762.762,0,0,1-.6.894l-.951.188a1.235,1.235,0,0,0-.895.894Zm-.362,1.018a.76.76,0,0,1-.649.175l-.951-.191a1.235,1.235,0,0,0-1.169.484l-.041.063,1.6,3.426.964-1.214,1.548.042Zm-8.787.531-.041-.063a1.235,1.235,0,0,0-1.169-.484l-.95.191a.759.759,0,0,1-.65-.175l-1.3,2.786,1.549-.042.963,1.214Zm4.7-.434s.495-.742.495-.742a1.826,1.826,0,0,1,1.79-.742l.874.175s.174-.875.174-.875a1.826,1.826,0,0,1,1.37-1.37l.874-.173s-.174-.875-.174-.875a1.825,1.825,0,0,1,.741-1.79l.742-.494s-.5-.741-.5-.741a1.826,1.826,0,0,1,0-1.938l.5-.74s-.742-.5-.742-.5a1.826,1.826,0,0,1-.741-1.79l.175-.874s-.875-.174-.875-.174a1.825,1.825,0,0,1-1.37-1.37l-.173-.874s-.875.174-.875.174a1.826,1.826,0,0,1-1.79-.742l-.493-.742s-.742.5-.742.5a1.826,1.826,0,0,1-1.938,0l-.74-.5s-.5.742-.5.742a1.826,1.826,0,0,1-1.79.742l-.874-.175s-.174.875-.174.875a1.826,1.826,0,0,1-1.37,1.37l-.874.173s.174.875.174.875a1.825,1.825,0,0,1-.741,1.79l-.742.494s.5.741.5.741a1.827,1.827,0,0,1,0,1.938l-.5.74s.742.5.742.5a1.827,1.827,0,0,1,.741,1.79l-.175.874s.875.174.875.174a1.825,1.825,0,0,1,1.37,1.37l.173.874s.875-.174.875-.174a1.826,1.826,0,0,1,1.79.742l.494.742s.742-.5.742-.5a1.826,1.826,0,0,1,1.938,0Zm-1.71-1.774a6.822,6.822,0,1,1,6.823-6.822A6.822,6.822,0,0,1,467.111,20.934Zm0-.758a6.064,6.064,0,1,0-6.064-6.064A6.064,6.064,0,0,0,467.111,20.176Zm-2.8-5.983.228-.228a.374.374,0,0,1,.529,0l.987.988a.378.378,0,0,0,.534-.005l2.494-2.494a.372.372,0,0,1,.534,0l.228.228a.38.38,0,0,1-.008.538L466.852,16.2a.756.756,0,0,1-1.073,0l-1.465-1.465A.38.38,0,0,1,464.309,14.192Z" transform="translate(-457 -4)" fill="#929292" fill-rule="evenodd"/>
</svg>
