<svg xmlns="http://www.w3.org/2000/svg" width="22" height="22" viewBox="0 0 22 22"><defs><style>.a{fill:#8b8b8c;}</style></defs><g transform="translate(-12.381 -7.586)"><g transform="translate(11.381 6.586)"><g transform="translate(1 1)"><path class="a" d="M10.333,7A1.835,1.835,0,0,0,8.5,8.833H9.967a.368.368,0,0,1,.367-.367.377.377,0,0,1,.375.31,2.211,2.211,0,0,1-.318.381,2.247,2.247,0,0,0-.79,1.509h1.467c0-.092.271-.378.387-.5a1.992,1.992,0,0,0,.713-1.332A1.835,1.835,0,0,0,10.333,7Z" transform="translate(-3 -2.6)"/><rect class="a" width="1.467" height="1.467" transform="translate(6.6 8.8)"/><rect class="a" width="1.467" height="3.667" transform="translate(13.933 13.933)"/><rect class="a" width="1.467" height="1.467" transform="translate(13.933 11.733)"/><path class="a" d="M23,15.667a7.342,7.342,0,0,0-7.333-7.333A7.333,7.333,0,0,0,1,8.333a7.254,7.254,0,0,0,1.607,4.58L1,14.217v1.45H8.333A7.342,7.342,0,0,0,15.667,23H23V21.55l-1.606-1.3A7.282,7.282,0,0,0,23,15.667ZM8.333,14.2H3.35l1.415-1.146-.579-.576a5.8,5.8,0,0,1-1.72-4.145,5.867,5.867,0,0,1,11.733,0c0,.052,0,.1,0,.148A7.36,7.36,0,0,0,8.481,14.2C8.432,14.2,8.385,14.2,8.333,14.2Zm7.333,7.333a5.866,5.866,0,1,1,4.148-1.718l-.576.576,1.41,1.143Z" transform="translate(-1 -1)"/></g></g></g></svg>