<svg xmlns="http://www.w3.org/2000/svg" width="22.53" height="16.106" viewBox="0 0 22.53 16.106"><defs><style>.a{fill:#fff;stroke:#fff;stroke-width:0.4px;}</style></defs><g transform="translate(0.2 0.2)"><path class="a" d="M-1999.63-85.14h-10.52a.85.85,0,0,1-.85-.85.85.85,0,0,1,.85-.851h10.55a3.7,3.7,0,0,1,3.6-2.86,3.7,3.7,0,0,1,3.57,2.86h2.71a.85.85,0,0,1,.851.851.85.85,0,0,1-.851.85h-2.71a3.7,3.7,0,0,1-3.6,2.846A3.7,3.7,0,0,1-1999.63-85.14ZM-1998-86a2,2,0,0,0,2,2,2,2,0,0,0,2-2,2,2,0,0,0-2-2A2,2,0,0,0-1998-86Zm-9.44-7.439h-2.71a.85.85,0,0,1-.85-.851.85.85,0,0,1,.85-.85h2.71a3.7,3.7,0,0,1,3.6-2.86,3.7,3.7,0,0,1,3.6,2.86h10.52a.85.85,0,0,1,.851.85.85.85,0,0,1-.851.851h-10.52a3.7,3.7,0,0,1-3.6,2.846A3.7,3.7,0,0,1-2007.44-93.44Zm1.6-.841a2,2,0,0,0,2,2,2,2,0,0,0,2-2,2,2,0,0,0-2-2A2,2,0,0,0-2005.84-94.28Z" transform="translate(2011 98)"/></g></svg>