<svg xmlns="http://www.w3.org/2000/svg" width="23.5" height="24.118" viewBox="0 0 23.5 24.118"><defs><style>.a{fill:none;stroke:#8b8b8c;stroke-width:1.5px;}</style></defs><path class="a" d="M11,5.5a.919.919,0,0,0-.917-.917H5.335L5.94,1.668l.018-.211a1.064,1.064,0,0,0-.3-.733L4.932,0,.4,4.528A1.38,1.38,0,0,0,0,5.5v5.958a1.373,1.373,0,0,0,1.375,1.375H7.563A1.383,1.383,0,0,0,8.827,12L10.9,7.15a1.337,1.337,0,0,0,.1-.5Zm9.625,3.667H14.438A1.383,1.383,0,0,0,13.173,10L11.1,14.85a1.337,1.337,0,0,0-.1.5V16.5a.919.919,0,0,0,.917.917h4.748l-.6,2.915-.018.22a1.064,1.064,0,0,0,.3.733l.724.715L21.6,17.472A1.38,1.38,0,0,0,22,16.5V10.542A1.373,1.373,0,0,0,20.625,9.167Z" transform="translate(0.75 1.061)"/></svg>