<svg xmlns="http://www.w3.org/2000/svg" width="22" height="22" viewBox="0 0 22 22"><defs><style>.a{fill:#FF0000;}.b,.c{stroke:none;}.c{fill:#fff;}</style></defs><g class="a" transform="translate(-3 -3)"><path class="b" d="M 14 24.89999961853027 C 7.989719867706299 24.89999961853027 3.099999904632568 20.01028060913086 3.099999904632568 14 C 3.099999904632568 7.989719867706299 7.989719867706299 3.099999904632568 14 3.099999904632568 C 20.01028060913086 3.099999904632568 24.89999961853027 7.989719867706299 24.89999961853027 14 C 24.89999961853027 20.01028060913086 20.01028060913086 24.89999961853027 14 24.89999961853027 Z M 14 5.099999904632568 C 9.092519760131836 5.099999904632568 5.099999904632568 9.092519760131836 5.099999904632568 14 C 5.099999904632568 18.90748023986816 9.092519760131836 22.89999961853027 14 22.89999961853027 C 18.90748023986816 22.89999961853027 22.89999961853027 18.90748023986816 22.89999961853027 14 C 22.89999961853027 9.092519760131836 18.90748023986816 5.099999904632568 14 5.099999904632568 Z M 15 19.39999961853027 L 13 19.39999961853027 L 13 13 L 15 13 L 15 19.39999961853027 Z M 15 10.60000038146973 L 13 10.60000038146973 L 13 8.600000381469727 L 15 8.600000381469727 L 15 10.60000038146973 Z"/><path class="c" d="M 14 24.79999923706055 C 19.95513916015625 24.79999923706055 24.79999923706055 19.95513916015625 24.79999923706055 14 C 24.79999923706055 8.044859886169434 19.95513916015625 3.200000047683716 14 3.200000047683716 C 8.044859886169434 3.200000047683716 3.200000047683716 8.044859886169434 3.200000047683716 14 C 3.200000047683716 19.95513916015625 8.044859886169434 24.79999923706055 14 24.79999923706055 M 14 5 C 18.96261978149414 5 23 9.037380218505859 23 14 C 23 18.96261978149414 18.96261978149414 23 14 23 C 9.037380218505859 23 5 18.96261978149414 5 14 C 5 9.037380218505859 9.037380218505859 5 14 5 M 14.89999961853027 19.29999923706055 L 14.89999961853027 13.10000038146973 L 13.10000038146973 13.10000038146973 L 13.10000038146973 19.29999923706055 L 14.89999961853027 19.29999923706055 M 14.89999961853027 10.5 L 14.89999961853027 8.699999809265137 L 13.10000038146973 8.699999809265137 L 13.10000038146973 10.5 L 14.89999961853027 10.5 M 14 25 C 7.927999973297119 25 3 20.07200050354004 3 14 C 3 7.927999973297119 7.927999973297119 3 14 3 C 20.07200050354004 3 25 7.927999973297119 25 14 C 25 20.07200050354004 20.07200050354004 25 14 25 Z M 14 5.199999809265137 C 9.14900016784668 5.199999809265137 5.199999809265137 9.14900016784668 5.199999809265137 14 C 5.199999809265137 18.85099983215332 9.14900016784668 22.79999923706055 14 22.79999923706055 C 18.85099983215332 22.79999923706055 22.79999923706055 18.85099983215332 22.79999923706055 14 C 22.79999923706055 9.14900016784668 18.85099983215332 5.199999809265137 14 5.199999809265137 Z M 15.10000038146973 19.5 L 12.89999961853027 19.5 L 12.89999961853027 12.89999961853027 L 15.10000038146973 12.89999961853027 L 15.10000038146973 19.5 Z M 15.10000038146973 10.69999980926514 L 12.89999961853027 10.69999980926514 L 12.89999961853027 8.5 L 15.10000038146973 8.5 L 15.10000038146973 10.69999980926514 Z"/></g></svg>