<svg xmlns="http://www.w3.org/2000/svg" width="26.668" height="26.668" viewBox="0 0 26.668 26.668"><defs><style>.a{fill:#356083;}</style></defs><path class="a" d="M18.922,26.668H7.746A7.755,7.755,0,0,1,0,18.922V7.747A7.755,7.755,0,0,1,7.746,0H18.922a7.755,7.755,0,0,1,7.746,7.747V18.922A7.755,7.755,0,0,1,18.922,26.668ZM7.746,2.082A5.67,5.67,0,0,0,2.082,7.747V18.922a5.668,5.668,0,0,0,5.664,5.66H18.922a5.666,5.666,0,0,0,5.659-5.66V7.747a5.668,5.668,0,0,0-5.659-5.664Z" transform="translate(0 0)"/><path class="a" d="M7.186,14.378a7.189,7.189,0,1,1,7.186-7.187A7.195,7.195,0,0,1,7.186,14.378Zm0-12.293a5.1,5.1,0,1,0,5.107,5.107A5.11,5.11,0,0,0,7.186,2.085Z" transform="translate(6.147 6.143)"/><circle class="a" cx="1.042" cy="1.042" r="1.042" transform="translate(19.583 5)"/></svg>