<svg xmlns="http://www.w3.org/2000/svg" width="26.257" height="22.746" viewBox="0 0 26.257 22.746"><defs><style>.a{fill:#929292;stroke:#929292;stroke-width:0.25px;}</style></defs><g transform="translate(-8.555 -14.26)"><path class="a" d="M47.147,30.893a2.043,2.043,0,1,0-2.04,2.043A2.043,2.043,0,0,0,47.147,30.893Zm-2.04,1.412a1.412,1.412,0,1,1,1.409-1.412,1.412,1.412,0,0,1-1.409,1.412Z" transform="translate(-23.522 -9.893)"/><path class="a" d="M27.621,31.76a2.04,2.04,0,1,0-2.04,2.04A2.04,2.04,0,0,0,27.621,31.76Zm-2.04,1.409a1.412,1.412,0,1,1,1.409-1.409A1.412,1.412,0,0,1,25.58,33.169Z" transform="translate(-10.167 -10.488)"/><path class="a" d="M17.963,46.43a2.043,2.043,0,1,0,2.043,2.04A2.043,2.043,0,0,0,17.963,46.43Zm0,3.452a1.412,1.412,0,1,1,1.412-1.412A1.412,1.412,0,0,1,17.963,49.882Z" transform="translate(-4.953 -21.921)"/><path class="a" d="M34.177,59.07a2.043,2.043,0,1,0,2.04,2.043A2.043,2.043,0,0,0,34.177,59.07Zm0,3.452a1.412,1.412,0,1,1,1.409-1.409A1.412,1.412,0,0,1,34.177,62.522Z" transform="translate(-16.044 -30.569)"/><path class="a" d="M33.119,14.478a.316.316,0,0,0-.534.2c0,.066-.2,1.677-2.555,2.154A2.583,2.583,0,0,0,28.2,18.009a3.051,3.051,0,0,0-.316,2.012,1.579,1.579,0,0,0-.61.164A11.031,11.031,0,0,0,19.1,16.711c-5.745,0-10.422,4.106-10.422,9.134s4.674,9.134,10.422,9.134c.262,0,.521,0,.78-.025h0a1.251,1.251,0,0,0,.632,1.69,1.667,1.667,0,0,0,.834.237,1.048,1.048,0,0,0,.947-.515l1.693-2.451a10.528,10.528,0,0,0,1.437-.809,1.816,1.816,0,0,0,.809-1.579,1.841,1.841,0,0,0-.142-.67l5.214-7.533a1.311,1.311,0,0,0,.111-1.049c1.933-1.077,3.019-2.362,3.228-3.828A5.123,5.123,0,0,0,33.119,14.478Zm-14,19.859c-5.4,0-9.791-3.812-9.791-8.5s4.39-8.5,9.791-8.5a10.413,10.413,0,0,1,7.7,3.266.994.994,0,0,0-.069.1l-1.368,2.842a4.106,4.106,0,0,0-2.842,3.9,2.274,2.274,0,0,0,.388,1.222l-2.713,5.609C19.854,34.316,19.488,34.338,19.118,34.338Zm5.849-9.926-1.705,3.544a1.43,1.43,0,0,1-.1-.508,3.474,3.474,0,0,1,1.807-3.035Zm.107,8.174c-.095.063-.193.117-.287.177l.815-1.178A1.2,1.2,0,0,1,25.075,32.585ZM30.76,22.99,21.768,36.018v.019a.407.407,0,0,1-.354.212,1,1,0,0,1-.562-.148c-.227-.133-.606-.477-.388-.85L27.308,21a.805.805,0,0,1,.758-.357h.085a3.6,3.6,0,0,1,2.5,1.45.85.85,0,0,1,.123.894Zm3.259-4.617c-.177,1.263-1.143,2.375-2.874,3.348a3.875,3.875,0,0,0-1.263-1.143,4.105,4.105,0,0,0-1.317-.5,2.527,2.527,0,0,1,.2-1.731,1.977,1.977,0,0,1,1.409-.881,3.617,3.617,0,0,0,2.89-2.1A4.19,4.19,0,0,1,34.019,18.373Z" transform="translate(0 0)"/></g></svg>