<svg xmlns="http://www.w3.org/2000/svg" width="26.612" height="25.272" viewBox="0 0 26.612 25.272"><defs><style>.a{fill:#356083;}</style></defs><path class="a" d="M20.909,25.272V16.15c0-2.292-.826-3.857-2.89-3.857a3.12,3.12,0,0,0-2.927,2.074,3.843,3.843,0,0,0-.19,1.382v9.523H9.2S9.274,9.821,9.2,8.22H14.9v2.417c-.012.018-.028.037-.038.055H14.9v-.055a5.667,5.667,0,0,1,5.141-2.818c3.755,0,6.569,2.437,6.569,7.675v9.778Zm-20.57,0V8.22h5.7V25.272ZM3.152,5.893A2.956,2.956,0,1,1,3.229,0a2.957,2.957,0,1,1-.038,5.893Z"/></svg>