<svg xmlns="http://www.w3.org/2000/svg" width="13.202" height="17.25" viewBox="0 0 13.202 17.25"><defs><style>.a{fill:#707070;stroke:#fff;stroke-width:0.25px;}</style></defs><path class="a" d="M17.333,7.167h-.81V5.548a4.048,4.048,0,0,0-8.1,0V7.167h-.81A1.624,1.624,0,0,0,6,8.786v8.1A1.624,1.624,0,0,0,7.619,18.5h9.714a1.624,1.624,0,0,0,1.619-1.619v-8.1A1.624,1.624,0,0,0,17.333,7.167ZM9.967,5.548a2.51,2.51,0,1,1,5.019,0V7.167H9.967Zm7.367,11.333H7.619v-8.1h9.714Z" transform="translate(-5.875 -1.375)"/></svg>