<svg xmlns="http://www.w3.org/2000/svg" width="18" height="13.909" viewBox="0 0 18 13.909"><defs><style>.a{fill:#404040;}</style></defs><path class="a" d="M16.478,2.5H1.522A1.519,1.519,0,0,0,0,4.022V14.887a1.524,1.524,0,0,0,1.522,1.522H16.478A1.524,1.524,0,0,0,18,14.887V4.022A1.519,1.519,0,0,0,16.478,2.5ZM1.522,3.318H16.478a.7.7,0,0,1,.7.7V7.565l-7.56,3.6a1.458,1.458,0,0,1-1.252,0L.818,7.556V4.022A.7.7,0,0,1,1.522,3.318ZM16.478,15.591H1.522a.7.7,0,0,1-.7-.7V8.465l7.208,3.428a2.256,2.256,0,0,0,1.947,0l7.208-3.428v6.423A.7.7,0,0,1,16.478,15.591Z" transform="translate(0 -2.5)"/></svg>