<svg xmlns="http://www.w3.org/2000/svg" width="50" height="50" viewBox="0 0 50 50"><defs><style>.a{fill:#9cac70;}.b{fill:#fff;}</style></defs><g transform="translate(-262 -310)"><path class="a" d="M25,0A25,25,0,1,1,0,25,25,25,0,0,1,25,0Z" transform="translate(262 310)"/><path class="b" d="M20.377,4.5H16.35a1.5,1.5,0,0,0-1.012.394L10.73,9.112s-.009.014-.014.019a1.865,1.865,0,0,0-.1,2.625,1.955,1.955,0,0,0,2.63.127s.014,0,.019-.009l3.745-3.431a.75.75,0,0,1,1.013,1.106L16.8,10.669l6.825,5.541a3.378,3.378,0,0,1,.37.361V7.5L21.436,4.941A1.489,1.489,0,0,0,20.377,4.5ZM25.5,7.509V18A1.5,1.5,0,0,0,27,19.5h3v-12ZM27.75,18a.75.75,0,1,1,.75-.75A.752.752,0,0,1,27.75,18ZM0,19.5H3A1.5,1.5,0,0,0,4.5,18V7.509H0Zm2.25-3a.75.75,0,1,1-.75.75A.752.752,0,0,1,2.25,16.5Zm20.433.872-7-5.681-1.406,1.289A3.374,3.374,0,0,1,9.717,8.011L13.552,4.5H9.623a1.5,1.5,0,0,0-1.059.441L6,7.5V18h.858L11.1,21.834a3,3,0,0,0,4.219-.436l.009-.009.839.727a1.742,1.742,0,0,0,2.452-.253l1.472-1.809.253.206a1.5,1.5,0,0,0,2.109-.22l.445-.548a1.5,1.5,0,0,0-.216-2.114Z" transform="translate(272.5 321.995)"/></g></svg>