<svg xmlns="http://www.w3.org/2000/svg" width="26.393" height="17.25" viewBox="0 0 26.393 17.25"><defs><style>.a{fill:none;stroke:#707070;stroke-width:1.25px;}</style></defs><path class="a" d="M18.643,14.357a3.429,3.429,0,1,0-3.429-3.429A3.414,3.414,0,0,0,18.643,14.357Zm-9.143,0a3.429,3.429,0,1,0-3.429-3.429A3.414,3.414,0,0,0,9.5,14.357Zm0,2.286c-2.663,0-8,1.337-8,4V23.5h16V20.643C17.5,17.98,12.163,16.643,9.5,16.643Zm9.143,0c-.331,0-.709.023-1.109.057a4.823,4.823,0,0,1,2.251,3.943V23.5h6.857V20.643C26.643,17.98,21.306,16.643,18.643,16.643Z" transform="translate(-0.875 -6.875)"/></svg>