<svg xmlns="http://www.w3.org/2000/svg" width="22" height="19.556" viewBox="0 0 22 19.556"><defs><style>.a{fill:#356083;opacity:0.7;}</style></defs><path class="a" d="M7.944,0a2.437,2.437,0,0,0-2.36,1.841c-.031,0-.053-.008-.084-.008A2.447,2.447,0,0,0,3.056,4.278a2.252,2.252,0,0,0,.065.535A3.029,3.029,0,0,0,1.539,8.972a3.044,3.044,0,0,0,.348,5.462,2.8,2.8,0,0,0-.053.539,2.748,2.748,0,0,0,2.75,2.75,2.589,2.589,0,0,0,.458-.046,2.743,2.743,0,0,0,5.347-.871V2.444A2.447,2.447,0,0,0,7.944,0ZM22,11.611a3.04,3.04,0,0,0-1.539-2.639,3.006,3.006,0,0,0,.317-1.333,3.055,3.055,0,0,0-1.9-2.826A2.422,2.422,0,0,0,16.5,1.833c-.031,0-.057.008-.084.008a2.44,2.44,0,0,0-4.8.6V16.806a2.743,2.743,0,0,0,5.347.871,2.589,2.589,0,0,0,.458.046,2.748,2.748,0,0,0,2.75-2.75,2.8,2.8,0,0,0-.053-.539A3.056,3.056,0,0,0,22,11.611Z"/></svg>