<svg xmlns="http://www.w3.org/2000/svg" width="15.714" height="15.75" viewBox="0 0 15.714 15.75"><defs><style>.a{fill:#929292;}</style></defs><path class="a" d="M3.523-5020A1.528,1.528,0,0,1,2-5021.523v-7.62a1.527,1.527,0,0,1,1.523-1.523H10.1v-1.274a3.81,3.81,0,0,1,3.809-3.81,3.811,3.811,0,0,1,3.81,3.81v1.523H16.266v-1.523A2.364,2.364,0,0,0,13.9-5034.3a2.364,2.364,0,0,0-2.362,2.362v1.274h1.125a1.512,1.512,0,0,1,.832.249h0a1.525,1.525,0,0,1,.691,1.274v7.62A1.528,1.528,0,0,1,12.667-5020Zm0-1.524h9.144v-7.62H3.523Z" transform="translate(-2.001 5035.75)"/></svg>