<svg xmlns="http://www.w3.org/2000/svg" width="19.5" height="22.281" viewBox="0 0 19.5 22.281"><defs><style>.a{fill:none;stroke:#707070;stroke-linecap:round;stroke-linejoin:round;stroke-width:1.5px;}.b{fill:#707070;}</style></defs><g transform="translate(-3.75 -3.727)"><path class="a" d="M6.5,16.5h14a2.234,2.234,0,0,1,2,2.411v8.437a2.234,2.234,0,0,1-2,2.411H6.5a2.234,2.234,0,0,1-2-2.411V18.911A2.234,2.234,0,0,1,6.5,16.5Z" transform="translate(0 -4.5)"/><path class="a" d="M10.5,10.523V7.18c0-2.308,2.239-4.18,5-4.18s5,1.871,5,4.18v3.344" transform="translate(-2 1.477)"/><path class="b" d="M11.4,8.394a2.853,2.853,0,0,0,.023-.456c0-.16-.023-.3-.023-.456l.98-.753a.21.21,0,0,0,.047-.3L11.5,4.858a.227.227,0,0,0-.28-.091l-1.167.456a3.4,3.4,0,0,0-.793-.456L9.092,3.558a.25.25,0,0,0-.233-.182H6.992a.25.25,0,0,0-.233.182L6.572,4.767a3.951,3.951,0,0,0-.793.456L4.612,4.767a.219.219,0,0,0-.28.091L3.4,6.432a.276.276,0,0,0,.047.3l1,.753c0,.16-.023.3-.023.456s.023.3.023.456l-.98.753a.21.21,0,0,0-.047.3l.933,1.574a.227.227,0,0,0,.28.091L5.8,10.652a3.4,3.4,0,0,0,.793.456l.187,1.209a.226.226,0,0,0,.233.182H8.882a.25.25,0,0,0,.233-.182L9.3,11.109a3.949,3.949,0,0,0,.793-.456l1.167.456a.219.219,0,0,0,.28-.091l.933-1.574a.275.275,0,0,0-.047-.3ZM7.926,9.534a1.6,1.6,0,1,1,1.633-1.6A1.605,1.605,0,0,1,7.926,9.534Z" transform="translate(5.125 10.625)"/></g></svg>