<svg xmlns="http://www.w3.org/2000/svg" width="19.07" height="22.886" viewBox="0 0 19.07 22.886"><defs><style>.a{fill:#707070;}</style></defs><g transform="translate(-14.381 -7.586)"><path class="a" d="M33.444,19.3V10.867a1.03,1.03,0,0,0-.375-.776,1.055,1.055,0,0,0-.723-.268H32.24a9.925,9.925,0,0,1-1.258.08,9.8,9.8,0,0,1-6.344-2.409,1.034,1.034,0,0,0-1.445,0A9.551,9.551,0,0,1,16.849,9.9a9.925,9.925,0,0,1-1.258-.08h-.107a1.055,1.055,0,0,0-.723.268.989.989,0,0,0-.375.776V19.3a9.4,9.4,0,0,0,2.837,6.612,17.755,17.755,0,0,0,6.317,4.1,1.044,1.044,0,0,0,.8,0A16.572,16.572,0,0,0,31.3,25.134,8.978,8.978,0,0,0,33.444,19.3ZM31.3,22.672c-.937,1.9-3,4.256-7.361,6.049a14.616,14.616,0,0,1-6.719-4.9,6.409,6.409,0,0,1-.562-.91,6.947,6.947,0,0,1-.937-3.533V11.188c.375.027.749.054,1.124.054a11.158,11.158,0,0,0,5.273-1.365,12.543,12.543,0,0,0,1.445-.937,4,4,0,0,0,.348-.294,11.194,11.194,0,0,0,7.067,2.6c.375,0,.749-.027,1.124-.054v8.218A6.574,6.574,0,0,1,31.3,22.672Z" transform="translate(0 0.386)"/><path class="a" d="M11.4,8.394a2.853,2.853,0,0,0,.023-.456c0-.16-.023-.3-.023-.456l.98-.753a.21.21,0,0,0,.047-.3L11.5,4.858a.227.227,0,0,0-.28-.091l-1.167.456a3.4,3.4,0,0,0-.793-.456L9.092,3.558a.25.25,0,0,0-.233-.182H6.992a.25.25,0,0,0-.233.182L6.572,4.767a3.951,3.951,0,0,0-.793.456L4.612,4.767a.219.219,0,0,0-.28.091L3.4,6.432a.276.276,0,0,0,.047.3l1,.753c0,.16-.023.3-.023.456s.023.3.023.456l-.98.753a.21.21,0,0,0-.047.3l.933,1.574a.227.227,0,0,0,.28.091L5.8,10.652a3.4,3.4,0,0,0,.793.456l.187,1.209a.226.226,0,0,0,.233.182H8.882a.25.25,0,0,0,.233-.182L9.3,11.109a3.949,3.949,0,0,0,.793-.456l1.167.456a.219.219,0,0,0,.28-.091l.933-1.574a.275.275,0,0,0-.047-.3ZM7.926,9.534a1.6,1.6,0,1,1,1.633-1.6A1.605,1.605,0,0,1,7.926,9.534Z" transform="translate(16.006 10.211)"/></g></svg>