<svg xmlns="http://www.w3.org/2000/svg" width="24.016" height="28.5" viewBox="0 0 24.016 28.5"><defs><style>.a{fill:#000;fill-rule:evenodd;}</style></defs><path class="a" d="M476.323,24.892l2.544,5.456-2.845-.078-1.77,2.23-2.281-4.892,0,.007a.9.9,0,0,1-1.252.249l-.957-.641a1.464,1.464,0,0,0-1.5,0l-.956.641a.905.905,0,0,1-1.252-.249l0-.007L463.763,32.5l-1.769-2.23-2.845.078,2.544-5.456-.083-.423a1.465,1.465,0,0,0-1.062-1.062l-1.129-.223a.905.905,0,0,1-.71-1.062l.226-1.129a1.465,1.465,0,0,0-.574-1.388l-.959-.638a.906.906,0,0,1-.249-1.252l.642-.957a1.467,1.467,0,0,0,0-1.5l-.642-.956a.906.906,0,0,1,.249-1.252l.959-.638a1.464,1.464,0,0,0,.574-1.388l-.226-1.129a.905.905,0,0,1,.71-1.062l1.129-.223a1.466,1.466,0,0,0,1.062-1.062l.223-1.13a.905.905,0,0,1,1.062-.709l1.128.226a1.466,1.466,0,0,0,1.388-.575l.638-.958a.905.905,0,0,1,1.252-.249l.956.641a1.464,1.464,0,0,0,1.5,0l.957-.641a.9.9,0,0,1,1.252.249l.638.958a1.467,1.467,0,0,0,1.388.575l1.129-.226a.9.9,0,0,1,1.061.709l.223,1.13a1.466,1.466,0,0,0,1.062,1.062l1.129.223a.905.905,0,0,1,.71,1.062l-.226,1.129a1.465,1.465,0,0,0,.574,1.388l.959.638a.906.906,0,0,1,.249,1.252l-.642.956a1.467,1.467,0,0,0,0,1.5l.642.957a.905.905,0,0,1-.249,1.252l-.959.638a1.463,1.463,0,0,0-.574,1.388l.226,1.129a.905.905,0,0,1-.71,1.062l-1.129.223a1.467,1.467,0,0,0-1.062,1.062Zm-.429,1.209a.9.9,0,0,1-.771.208l-1.129-.226a1.467,1.467,0,0,0-1.388.575l-.049.075,1.9,4.069,1.144-1.441,1.839.05Zm-10.434.631-.049-.075a1.467,1.467,0,0,0-1.388-.575l-1.128.226a.9.9,0,0,1-.772-.208l-1.542,3.309,1.84-.05,1.143,1.441Zm5.578-.516s.588-.881.588-.881a2.169,2.169,0,0,1,2.126-.881l1.038.208s.206-1.039.206-1.039A2.169,2.169,0,0,1,476.622,22l1.038-.2s-.207-1.039-.207-1.039a2.167,2.167,0,0,1,.88-2.126l.882-.587s-.589-.881-.589-.881a2.168,2.168,0,0,1,0-2.3l.589-.879s-.882-.588-.882-.588a2.168,2.168,0,0,1-.88-2.126l.208-1.037s-1.039-.206-1.039-.206A2.168,2.168,0,0,1,475,8.393l-.206-1.038s-1.039.207-1.039.207a2.169,2.169,0,0,1-2.126-.881l-.586-.881s-.881.589-.881.589a2.168,2.168,0,0,1-2.3,0l-.879-.589s-.588.881-.588.881a2.169,2.169,0,0,1-2.126.881l-1.038-.208s-.206,1.039-.206,1.039a2.168,2.168,0,0,1-1.627,1.627l-1.038.2s.207,1.039.207,1.039a2.167,2.167,0,0,1-.88,2.126l-.882.587s.59.881.59.881a2.17,2.17,0,0,1,0,2.3l-.59.879s.882.588.882.588a2.17,2.17,0,0,1,.88,2.126l-.208,1.037s1.039.206,1.039.206a2.167,2.167,0,0,1,1.627,1.627l.206,1.038s1.039-.207,1.039-.207a2.169,2.169,0,0,1,2.126.881l.586.881s.881-.589.881-.589a2.168,2.168,0,0,1,2.3,0Zm-2.03-2.106a8.1,8.1,0,1,1,8.1-8.1A8.1,8.1,0,0,1,469.007,24.109Zm0-.9a7.2,7.2,0,1,0-7.2-7.2A7.2,7.2,0,0,0,469.007,23.209ZM465.679,16.1l.271-.27a.444.444,0,0,1,.628,0L467.751,17a.449.449,0,0,0,.634-.006l2.961-2.961a.442.442,0,0,1,.634,0l.271.27a.452.452,0,0,1-.009.638L468.7,18.483a.9.9,0,0,1-1.274,0l-1.74-1.74A.451.451,0,0,1,465.679,16.1Z" transform="translate(-457 -4)"/></svg>