<svg xmlns="http://www.w3.org/2000/svg" width="21.6" height="22.532" viewBox="0 0 21.6 22.532"><defs><style>.a{fill:#707070;stroke:#fff;stroke-width:0.7px;}</style></defs><g transform="translate(0.35 0.182)"><path class="a" d="M11.8,14.65v8.8H3v-8.8h8.8m-2.2,2.2H5.2v4.4H9.6v-4.4M12.9,2l6.05,9.9H6.85L12.9,2m0,4.246L10.788,9.7h4.224L12.9,6.246M18.95,14.1A4.95,4.95,0,1,1,14,19.05a4.929,4.929,0,0,1,4.95-4.95m0,2.2a2.75,2.75,0,1,0,2.75,2.75A2.75,2.75,0,0,0,18.95,16.3Z" transform="translate(-3 -2)"/></g></svg>