<svg xmlns="http://www.w3.org/2000/svg" width="22.123" height="24.153" viewBox="0 0 22.123 24.153"><defs><style>.a{fill:#5e5f60;}</style></defs><path class="a" d="M17.2,23.675a3.781,3.781,0,0,0,2.206-4.1,3.792,3.792,0,0,0,2.2-4.166,3.791,3.791,0,0,0-.062-6.8,3.766,3.766,0,0,0-2.2-4.349,3.823,3.823,0,0,0-3.736-4.41h0a3.817,3.817,0,0,0-3.8,3.8v16.6A3.843,3.843,0,0,0,17.2,23.675Zm-4.165-3.492V3.644a2.588,2.588,0,0,1,2.573-2.572h0a2.542,2.542,0,0,1,0,5.084.579.579,0,0,0-.613.612.579.579,0,0,0,.613.613,3.765,3.765,0,0,0,3.308-1.96,2.409,2.409,0,0,1,.367,4.226.62.62,0,1,0,.674,1.042,3,3,0,0,0,.98-.98,2.625,2.625,0,0,1,.122,4.594,3.516,3.516,0,0,0-1.776-1.47A.62.62,0,1,0,18.854,14a2.421,2.421,0,0,1,.062,4.472,3.765,3.765,0,0,0-3.308-1.96.613.613,0,1,0,0,1.225,2.563,2.563,0,0,1,1.041,4.9A2.659,2.659,0,0,1,13.035,20.183Z" transform="translate(-1.571 0.153)"/><path class="a" d="M3.6,18.58a.2.2,0,0,0,.176.1.208.208,0,0,0,.071-.012l2.48-1.006.16-.065.136.1a6.608,6.608,0,0,0,1.618.949l.162.065.024.172.37,2.651A.2.2,0,0,0,9,21.7h1.7V20.3H9.979l-.036-.258L9.6,17.628a5.773,5.773,0,0,1-2.82-1.648l-2.234.956-.245.1L4.17,16.81l-.75-1.3-.134-.233.216-.159,1.946-1.432a5.883,5.883,0,0,1,0-3.372L3.512,8.892,3.3,8.733,3.43,8.5l.75-1.3.134-.231.245.106,2.212.954A5.83,5.83,0,0,1,9.612,6.363l.341-2.4L9.99,3.7h.71V2.3H9a.2.2,0,0,0-.2.169L8.427,5.112,8.4,5.284l-.162.065A6.835,6.835,0,0,0,6.62,6.29l-.135.1-.157-.063-2.49-1a.185.185,0,0,0-.066-.013.2.2,0,0,0-.169.1L1.6,8.88a.2.2,0,0,0,.046.255l2.107,1.628.127.1-.011.16-.07,1,.07.927.012.159-.126.1-2.109,1.66a.192.192,0,0,0-.048.251Z" transform="translate(-1.571 0.153)"/><path class="a" d="M10.7,8.312a3.7,3.7,0,0,0,0,7.376V14.281a2.3,2.3,0,0,1,0-4.562Z" transform="translate(-1.571 0.153)"/></svg>