<svg xmlns="http://www.w3.org/2000/svg" width="19.604" height="19" viewBox="0 0 19.604 19"><defs><style>.a,.d{fill:none;}.a{stroke:#5e5f60;}.b{fill:#fff;stroke:#707070;}.c{stroke:none;}</style></defs><g transform="translate(-228 -589.475)"><path class="a" d="M20.25,10.688a2.8,2.8,0,0,0-1.417-2.429,2.767,2.767,0,0,0,.292-1.227,2.812,2.812,0,0,0-1.747-2.6,2.229,2.229,0,0,0-2.19-2.742c-.028,0-.053.007-.077.007a2.246,2.246,0,0,0-4.423.555V15.469a2.525,2.525,0,0,0,4.922.8,2.383,2.383,0,0,0,.422.042,2.53,2.53,0,0,0,2.531-2.531,2.576,2.576,0,0,0-.049-.5A2.813,2.813,0,0,0,20.25,10.688Z" transform="translate(226.854 589.975)"/><g class="b" transform="translate(234 593)"><rect class="c" width="2" height="14"/><rect class="d" x="0.5" y="0.5" width="1" height="13"/></g><g class="b" transform="translate(231 597)"><rect class="c" width="2" height="10"/><rect class="d" x="0.5" y="0.5" width="1" height="9"/></g><g class="b" transform="translate(228 601)"><rect class="c" width="2" height="6"/><rect class="d" x="0.5" y="0.5" width="1" height="5"/></g></g></svg>