<svg xmlns="http://www.w3.org/2000/svg" width="16" height="20.799" viewBox="0 0 16 20.799"><defs><style>.a{fill:#707070;}</style></defs><g transform="translate(-19.23 -10)"><path class="a" d="M54.875,30.862h1.88a.261.261,0,0,0,.26-.26v-1.88a.261.261,0,0,0-.26-.26h-1.88a.261.261,0,0,0-.26.26V30.6A.261.261,0,0,0,54.875,30.862Z" transform="translate(-26.185 -13.662)"/><path class="a" d="M38.294,28.462h-1.88a.261.261,0,0,0-.26.26V30.6a.261.261,0,0,0,.26.26h1.88a.261.261,0,0,0,.26-.26v-1.88A.261.261,0,0,0,38.294,28.462Z" transform="translate(-12.524 -13.662)"/><path class="a" d="M54.875,46.246h1.88a.261.261,0,0,0,.26-.26v-1.88a.261.261,0,0,0-.26-.26h-1.88a.261.261,0,0,0-.26.26v1.88A.261.261,0,0,0,54.875,46.246Z" transform="translate(-26.185 -25.046)"/><path class="a" d="M38.294,43.846h-1.88a.261.261,0,0,0-.26.26v1.88a.261.261,0,0,0,.26.26h1.88a.261.261,0,0,0,.26-.26v-1.88A.261.261,0,0,0,38.294,43.846Z" transform="translate(-12.524 -25.046)"/><path class="a" d="M38.294,59.23h-1.88a.261.261,0,0,0-.26.26v1.88a.261.261,0,0,0,.26.26h1.88a.261.261,0,0,0,.26-.26V59.49A.261.261,0,0,0,38.294,59.23Z" transform="translate(-12.524 -36.43)"/><path class="a" d="M34.97,28.4h-.54V11.06a.261.261,0,0,0-.26-.26H32.03v-.54a.261.261,0,0,0-.26-.26H22.69a.261.261,0,0,0-.26.26v.54H20.29a.261.261,0,0,0-.26.26V28.4h-.54a.261.261,0,0,0-.26.26v1.88a.261.261,0,0,0,.26.26H34.97a.261.261,0,0,0,.26-.26V28.66A.261.261,0,0,0,34.97,28.4Zm-13.34-16h11.2v16h-2V23.88a.281.281,0,0,0-.28-.28H28.71a.281.281,0,0,0-.28.28V28.4h-6.8Z" transform="translate(0)"/></g></svg>