<svg xmlns="http://www.w3.org/2000/svg" width="22.75" height="22.75" viewBox="0 0 22.75 22.75"><defs><style>.a{fill:#707070;stroke:#fff;stroke-width:0.75px;}</style></defs><path class="a" d="M24.571,11.553H22.4A8.959,8.959,0,0,0,14.946,4.1V1.928H12.2V4.1a8.959,8.959,0,0,0-7.457,7.457H2.571V14.3H4.739A8.959,8.959,0,0,0,12.2,21.76v2.168h2.75V21.76A8.959,8.959,0,0,0,22.4,14.3h2.168v-2.75Zm-4.967,0H17.461a4.136,4.136,0,0,0-2.515-2.515V6.895A6.208,6.208,0,0,1,19.6,11.553ZM13.571,14.3a1.375,1.375,0,1,1,1.375-1.375A1.375,1.375,0,0,1,13.571,14.3ZM12.2,6.895V9.038a4.136,4.136,0,0,0-2.515,2.515H7.537A6.208,6.208,0,0,1,12.2,6.895ZM7.537,14.3H9.681A4.136,4.136,0,0,0,12.2,16.818v2.143A6.208,6.208,0,0,1,7.537,14.3Zm7.408,4.658V16.818A4.136,4.136,0,0,0,17.461,14.3H19.6A6.208,6.208,0,0,1,14.946,18.961Z" transform="translate(-2.196 -1.553)"/></svg>