<svg xmlns="http://www.w3.org/2000/svg" width="26.667" height="22.627" viewBox="0 0 26.667 22.627"><defs><style>.a{fill:#356083;}</style></defs><path class="a" d="M26.667,2.677a10.563,10.563,0,0,1-3.141.9A5.7,5.7,0,0,0,25.93.418a10.748,10.748,0,0,1-3.476,1.387A5.349,5.349,0,0,0,18.461,0a5.6,5.6,0,0,0-5.471,5.713,5.974,5.974,0,0,0,.142,1.3A15.322,15.322,0,0,1,1.858,1.044a5.866,5.866,0,0,0-.74,2.872A5.782,5.782,0,0,0,3.551,8.672a5.3,5.3,0,0,1-2.478-.717v.071a5.663,5.663,0,0,0,4.387,5.6,5.319,5.319,0,0,1-1.441.2,5.034,5.034,0,0,1-1.03-.106A5.509,5.509,0,0,0,8.1,17.692,10.682,10.682,0,0,1,1.3,20.134,11.136,11.136,0,0,1,0,20.056a14.989,14.989,0,0,0,8.385,2.571c10.063,0,15.564-8.707,15.564-16.258l-.018-.74A11.2,11.2,0,0,0,26.667,2.677Z" transform="translate(0)"/></svg>