<svg xmlns="http://www.w3.org/2000/svg" width="20.603" height="20.25" viewBox="0 0 20.603 20.25"><defs><style>.a{fill:#707070;stroke:#707070;stroke-width:0.25px;}</style></defs><g transform="translate(-9.429 -7.931)"><path class="a" d="M15.164,19.164h4.028v7.781A11.737,11.737,0,0,1,15.164,19.164Zm-4.393,0h3.348a12.762,12.762,0,0,0,3.306,7.509,8.844,8.844,0,0,1-6.654-7.509Zm6.656-9.727a12.755,12.755,0,0,0-3.361,8.625c0,.021,0,.043,0,.066H10.7a8.858,8.858,0,0,1,6.725-8.69Zm1.765-.27v8.96H15.109c0-.023,0-.044,0-.066A11.727,11.727,0,0,1,19.19,9.168Zm.521-1.112-.044,0a10.063,10.063,0,0,0-8.662,5,9.959,9.959,0,0,0,0,10,10.065,10.065,0,0,0,8.67,5,.281.281,0,0,0,.037,0,10.077,10.077,0,0,0,7.645-3.508.515.515,0,0,0-.04-.75.521.521,0,0,0-.75.078,9.02,9.02,0,0,1-4.626,2.862,12.785,12.785,0,0,0,2.018-2.845.521.521,0,0,0-.926-.475,11.774,11.774,0,0,1-2.8,3.521V19.164h1.145a.518.518,0,1,0,0-1.036H20.233V9.135a11.748,11.748,0,0,1,3.245,4.476.521.521,0,1,0,.964-.393A12.809,12.809,0,0,0,22,9.39a8.988,8.988,0,0,1,6.14,5.476.52.52,0,1,0,.972-.368A10.056,10.056,0,0,0,19.713,8.056Z" transform="translate(0)"/><path class="a" d="M58.728,32.552a.328.328,0,0,1,.146.04l4.138,2.414-1.593.33a.518.518,0,0,0-.343.767l1.142,1.971a.167.167,0,0,1-.064.241l-.761.436a.168.168,0,0,1-.244-.065l-1.143-1.966a.521.521,0,0,0-.84-.087l-1.078,1.2-.03-4.773a.5.5,0,0,1,.29-.4.016.016,0,0,0,.008-.006.045.045,0,0,0,.016-.008A.674.674,0,0,1,58.728,32.552Zm.057-1.036a1.752,1.752,0,0,0-1.768,1.553l.03,4.795a1.18,1.18,0,0,0,.52,1.1.946.946,0,0,0,1.121-.238l.776-.87.784,1.348a1.23,1.23,0,0,0,1.665.445l.762-.438a1.217,1.217,0,0,0,.447-1.655l-.785-1.35,1.154-.237a.933.933,0,0,0,.766-.846,1.182,1.182,0,0,0-.7-1L59.4,31.7v0a1.226,1.226,0,0,0-.615-.184Z" transform="translate(-34.349 -17.016)"/></g></svg>