<svg xmlns="http://www.w3.org/2000/svg" width="23.5" height="16.959" viewBox="0 0 23.5 16.959"><defs><style>.a{fill:none;stroke:#8b8b8c;stroke-linecap:round;stroke-linejoin:round;stroke-width:1.5px;}</style></defs><g transform="translate(-0.749 -5.25)"><path class="a" d="M23.039,8.42a2.78,2.78,0,0,0-1.94-2C19.379,6,12.5,6,12.5,6s-6.88,0-8.6.46a2.78,2.78,0,0,0-1.94,2,29,29,0,0,0-.46,5.29,29,29,0,0,0,.46,5.33A2.78,2.78,0,0,0,3.9,21c1.72.46,8.6.46,8.6.46s6.88,0,8.6-.46a2.78,2.78,0,0,0,1.94-2,29,29,0,0,0,.46-5.25,29,29,0,0,0-.46-5.33Z"/><path class="a" d="M14.625,19.26l5.75-3.27-5.75-3.27Z" transform="translate(-4.376 -2.24)"/></g></svg>